<?xml version="1.0" standalone="no" ?>
<!DOCTYPE svg PUBLIC "-//W3C//DTD SVG 1.1//EN" "http://www.w3.org/Graphics/SVG/1.1/DTD/svg11.dtd">
<svg t="1572413623951" class="icon" viewBox="0 0 1024 1024" version="1.1" xmlns="http://www.w3.org/2000/svg" p-id="2944" xmlns:xlink="http://www.w3.org/1999/xlink" width="200" height="200">
    <defs>
        <style type="text/css"></style>
    </defs>
    <path d="M112 16h736v992H112z" fill="#EDF2F9" p-id="2945"></path>
    <path d="M480 608c-123.712 0-224 100.288-224 224h448c0-123.712-100.288-224-224-224z" fill="#FFFFFF" p-id="2946"></path>
    <path d="M392 736a24 24 0 1 0-0.016-48.016A24 24 0 0 0 392 736z m176 0a24 24 0 1 0-0.016-48.016A24 24 0 0 0 568 736zM240 832a16 16 0 0 0 16 16h448a16 16 0 0 0 16-16c0-76.56-35.984-144.592-91.808-188.544l55.184-55.168a16.752 16.752 0 0 0-23.664-23.664L600 624.352a238.752 238.752 0 0 0-240 0l-59.728-59.728a16.752 16.752 0 0 0-23.664 23.664l55.184 55.168C275.984 687.408 240 755.44 240 832z m240-208c109.472 0 199.008 84.624 207.184 192H272.816c8.176-107.376 97.712-192 207.184-192zM896 128h-32V32a32 32 0 0 0-32-32H128a32 32 0 0 0-32 32v960a32 32 0 0 0 32 32h704a32 32 0 0 0 32-32V416h32a32 32 0 0 0 32-32V160a32 32 0 0 0-32-32z m-64 0H448a32 32 0 0 0-32 32v224a32 32 0 0 0 32 32h384v576H128V32h704v96z" fill="#007bff" p-id="2947"></path>
    <path d="M617.648 328h-20.976c-2.336 0-4.288-0.544-5.792-1.648s-2.576-2.48-3.152-4.208l-6.896-20.32h-44.32l-6.88 20.32c-0.544 1.504-1.584 2.848-3.12 4.048s-3.44 1.808-5.68 1.808h-21.104l45.104-116.56h27.68l45.136 116.56z m-74.896-44.56h31.84l-10.72-31.92c-0.688-2.016-1.52-4.4-2.432-7.152a173.216 173.216 0 0 1-2.768-8.928c-0.864 3.248-1.728 6.272-2.64 9.04a124.08 124.08 0 0 1-2.56 7.2l-10.72 31.76zM654.112 289.04V328h-27.024v-116.56h41.104c8.224 0 15.264 0.976 21.168 2.928 5.888 1.952 10.736 4.624 14.544 8.048 3.808 3.408 6.64 7.44 8.448 12.08s2.72 9.664 2.72 15.024c0 5.808-0.944 11.152-2.8 16a32.304 32.304 0 0 1-8.56 12.48c-3.84 3.472-8.72 6.176-14.608 8.128-5.888 1.936-12.864 2.928-20.928 2.928h-14.064z m0-20.4h14.08c7.04 0 12.112-1.68 15.2-5.04s4.64-8.048 4.64-14.08c0-2.656-0.384-5.088-1.2-7.28a14.848 14.848 0 0 0-3.648-5.648 16.496 16.496 0 0 0-6.16-3.648 27.424 27.424 0 0 0-8.848-1.264h-14.08v36.96zM756.192 258.64h4.336c4 0 6.88-1.248 8.64-3.76l26.24-38.08c1.44-2.08 3.072-3.488 4.928-4.24s4.096-1.12 6.768-1.12h23.52l-34.56 47.12a23.264 23.264 0 0 1-7.92 7.04c2.032 0.752 3.872 1.776 5.568 3.088 1.664 1.296 3.216 3.04 4.592 5.232l35.2 54.08h-24.16c-1.552 0-2.88-0.112-3.968-0.32-1.088-0.224-2.032-0.544-2.832-0.976s-1.504-0.944-2.08-1.568a14.336 14.336 0 0 1-1.68-2.112l-26.4-40.56a8 8 0 0 0-3.632-3.168 16 16 0 0 0-5.968-0.912h-6.56v49.6h-27.024v-116.56h27.024v47.216z" fill="#FFFFFF" p-id="2948"></path>
</svg>