<?xml version="1.0" encoding="UTF-8"?>
<!-- Generator: Adobe Illustrator 16.0.0, SVG Export Plug-In . SVG Version: 6.00 Build 0)  -->
<!DOCTYPE svg PUBLIC "-//W3C//DTD SVG 1.1//EN" "http://www.w3.org/Graphics/SVG/1.1/DTD/svg11.dtd">
<svg version="1.1" id="Layer_1" xmlns="http://www.w3.org/2000/svg" xmlns:xlink="http://www.w3.org/1999/xlink" x="0px" y="0px" width="695.625px" height="155.301px" viewBox="0 0 695.625 155.301" enable-background="new 0 0 695.625 155.301" xml:space="preserve">
<g>
	<g>
		<path fill="#F37521" d="M73.135,0h9.02c9.7,0.99,19.15,4.61,26.82,10.66c4.58,3.48,8.22,7.98,11.97,12.29    c-7.71-1.28-15.57-2.74-23.4-1.5c-15.88,1.92-30.18,11.16-40.15,23.41c-1.98,2.7-4.61,5.5-4.31,9.11    c0.01,14.06,0.01,28.12,0.01,42.19c-12.14-7.49-21.51-19.62-24.86-33.56c-3.56-14.45-0.33-30.4,8.71-42.25    C45.385,8.82,58.945,1.36,73.135,0z"/>
		<path fill="#F37521" d="M102.105,59.67c11.64,6.94,21.1,17.9,24.6,31.15c4.14,14.43,1.35,30.64-7.36,42.85    c-9.16,13.1-24.73,21.61-40.78,21.61c-12.8,0.39-25.58-4.54-35.01-13.16c-3.33-3-6.14-6.51-9.11-9.86c7,1.06,14.07,2.6,21.18,1.74    c18.04-1.48,34.93-12.24,44.21-27.73c1.11-1.96,2.5-3.99,2.27-6.36C102.105,86.5,102.075,73.09,102.105,59.67z"/>
		<g>
			<path fill="#F37521" d="M181.805,105.28c3.41-1.5,7.96-0.82,10.13,2.4c2.29,2.96,2.55,6.85,2.74,10.44     c0.32,5.43,0.43,11.17-1.87,16.23c-2.5,5.94-12.13,6.3-15.23,0.7c-2.79-5.15-2.55-11.32-2.33-17     C175.625,113.3,176.645,107.07,181.805,105.28z M183.005,109.42c-2.4,2.49-2.18,6.34-2.43,9.56c0.1,4.75-0.5,9.93,1.81,14.27     c1.03,2.17,4.43,2.02,5.46-0.06c1.72-3.09,1.43-6.78,1.54-10.2c-0.07-4.06,0.25-8.33-1.36-12.16     C187.415,108.83,184.455,107.45,183.005,109.42z"/>
		</g>
		<path fill="#F37521" d="M216.845,105.02c1.58-0.01,3.16-0.01,4.74-0.02c-0.01,11.17,0,22.33,0,33.5    c-1.58-0.01-3.16-0.01-4.74-0.02C216.865,127.33,216.865,116.17,216.845,105.02z"/>
		<g>
			<path fill="#F37521" d="M282.845,105.02c4.59,0.31,10.61-1.35,13.9,2.83c2.2,3.66,2.16,8.59,0.11,12.31     c-1.84,3.18-5.77,3.42-9.02,3.76c0,4.86,0,9.72,0,14.58c-1.67-0.01-3.34-0.02-5-0.03     C282.875,127.32,282.855,116.17,282.845,105.02z M287.975,108.31c-0.21,3.96-0.15,7.94-0.12,11.91c3.81-0.09,6.15-3.53,5.19-7.16     C293.125,110.08,290.325,109.01,287.975,108.31z"/>
		</g>
		<g>
			<path fill="#F37521" d="M448.355,105.01c4.47,0.24,10.31-1.19,13.45,2.94c1.97,4.37,2.24,11.45-3.08,13.53     c2.19,1.11,4.44,2.74,4.72,5.4c0.43,3.59,0.31,8.37-3.26,10.39c-3.68,1.82-7.89,1.1-11.83,1.22     C448.355,127.33,448.355,116.17,448.355,105.01z M453.165,108.33c-0.13,3.96-0.13,7.92,0.02,11.88     C459.865,119.85,459.935,108.53,453.165,108.33z M453.165,122.87c-0.12,4.06-0.12,8.13-0.01,12.19c1.8-0.61,4.35-0.9,4.8-3.18     c0.28-1.92,0.3-3.91-0.08-5.82C457.415,123.83,454.925,123.55,453.165,122.87z"/>
		</g>
		<g>
			<path fill="#F37521" d="M546.605,105.01c4.34,0.27,9.45-1.05,13.12,1.94c3.12,3.46,2.98,9.06,0.99,13.05     c-1.78,3.29-5.83,3.62-9.13,3.91c-0.01,4.86-0.01,9.72,0,14.58c-1.67,0-3.33,0-4.98,0     C546.605,127.33,546.615,116.17,546.605,105.01z M551.675,108.4c-0.14,3.95-0.12,7.91-0.03,11.87c2.22-0.58,5.19-1.41,5.15-4.28     C557.685,112.34,555.605,108.62,551.675,108.4z"/>
		</g>
		<path fill="#F37521" d="M224.535,108.94c1.23-1.46,2.83-3.17,4.94-2.28c2.98,0.84,2.05,5.5-0.93,5.34    C226.465,112.41,225.565,110.24,224.535,108.94z"/>
		<path fill="#F37521" d="M648.525,108.94c1.38-3.33,7.26-3.27,6.82,0.92C654.075,113.42,649.455,112.03,648.525,108.94z"/>
		<path fill="#F37521" d="M597.605,109.76c1.57,0,3.14-0.01,4.73-0.01c-0.01,1.97-0.01,3.94-0.01,5.92    c2.66-0.29,2.68,1.82,2.69,3.79c-0.67,0.01-2.01,0.04-2.68,0.05c-0.021,6.34,0.03,12.68-0.04,19.02    c-1.57-0.03-3.14-0.04-4.69-0.06c0-6.33,0.02-12.67-0.02-19c-0.62,0.01-1.85,0.03-2.47,0.03c-0.01-0.86-0.02-2.6-0.02-3.47    c0.63-0.01,1.88-0.03,2.51-0.04C597.605,113.91,597.595,111.83,597.605,109.76z"/>
		<path fill="#F37521" d="M405.345,109.76c1.58,0,3.16,0,4.75,0c-0.01,2.05-0.02,4.1-0.05,6.15c0.64,0.04,1.92,0.11,2.55,0.15    c0,0.86-0.01,2.57-0.02,3.43c-0.62,0-1.87,0-2.49,0c0,6.34,0,12.67,0,19c-1.58,0-3.16,0-4.73,0c0-6.34,0-12.67,0-19.01    c-0.62,0.01-1.87,0.02-2.49,0.02c0-0.87-0.02-2.6-0.03-3.46c0.64-0.02,1.9-0.05,2.53-0.07    C405.355,113.9,405.345,111.83,405.345,109.76z"/>
		<path fill="#F37521" d="M640.095,109.76c1.58,0,3.16,0,4.75,0c-0.01,2.07-0.02,4.14-0.02,6.21c0.63,0.02,1.89,0.05,2.52,0.06    c0,0.87-0.01,2.6-0.02,3.47c-0.62-0.01-1.87-0.01-2.49-0.01c0,6.33,0,12.66,0,19c-1.58,0-3.16,0-4.73,0c0-6.33,0-12.67,0-19    c-0.62,0-1.87,0-2.49,0c-0.01-0.86-0.02-2.59-0.02-3.45c0.63-0.02,1.9-0.07,2.53-0.1    C640.105,113.88,640.095,111.82,640.095,109.76z"/>
		<path fill="#F37521" d="M526.785,118.85c1.52-1.54,3.31-2.77,5.34-3.54c0.13,1.43,0.23,2.86,0.36,4.3    c-1.88,0.66-4.77,0.68-5.19,3.15c-0.54,5.21-0.05,10.49-0.21,15.73c-1.58,0-3.16,0-4.73,0c0-7.5,0-14.99,0-22.49    c1.61,0.01,3.23,0.02,4.86,0.04C527.105,116.74,526.895,118.15,526.785,118.85z"/>
		<path fill="#F37521" d="M198.105,116.01c1.59,0,3.18,0,4.78,0.01c-0.07,0.86-0.13,1.72-0.19,2.58c1.54-1.61,3.46-3.37,5.89-2.82    c2.71,0.01,4.25,2.76,4.19,5.2c0.18,5.83,0,11.67,0.06,17.51c-1.58,0-3.15,0-4.73,0c-0.12-5.68,0.25-11.38-0.16-17.04    c-0.27-2.01-2.74-2.35-4.21-1.38c-1.02,1.45-0.88,3.29-0.92,4.96c0.01,4.49,0.03,8.97,0.02,13.46c-1.58,0-3.16,0-4.73,0    C198.105,131,198.105,123.5,198.105,116.01z"/>
		<path fill="#F37521" d="M225.845,116.02c1.58-0.01,3.16-0.01,4.74-0.02c0,7.5-0.01,14.99,0,22.48c-1.57,0.01-3.14,0.02-4.71,0.03    C225.835,131.01,225.875,123.51,225.845,116.02z"/>
		<path fill="#F37521" d="M234.845,116.02c1.6-0.01,3.19-0.01,4.79-0.02c-0.04,0.65-0.12,1.94-0.17,2.58    c2.13-3.51,8.62-4.15,9.76,0.45c0.83,6.44,0.16,13,0.33,19.49c-1.57-0.02-3.14-0.03-4.7-0.04c-0.14-5.84,0.31-11.71-0.23-17.53    c-1.1-2.29-4.77-1.66-4.88,0.91c-0.41,5.52-0.05,11.08-0.16,16.62c-1.57,0.01-3.15,0.02-4.71,0.03    C234.835,131.01,234.875,123.51,234.845,116.02z"/>
		<g>
			<path fill="#F37521" d="M254.445,119.81c1.58-4.57,8.38-5.47,11.41-1.89c2.33,2.76,2.24,6.62,2.63,10.02     c-3.63,0.06-7.25,0.02-10.87,0.15c0.54,2.48,0.31,5.87,3.12,7.03c2.38-0.16,2.81-2.59,3.52-4.39c1.07,0.02,3.19,0.05,4.25,0.06     c-0.64,2.19-0.83,4.81-2.72,6.36c-3.42,2.64-9.35,2.09-11.29-2.11C252.495,130.26,252.635,124.63,254.445,119.81z M257.835,124.7     c2.01,0.05,4.01,0.06,6.03,0.05c-0.63-1.87-0.54-5.41-3.29-5.21C257.985,119.77,258.285,122.82,257.835,124.7z"/>
		</g>
		<g>
			<path fill="#F37521" d="M300.425,127.01c0.3-3.8,0.13-9.05,4.23-10.91c2.45-1.22,4.73,0.73,6.81,1.8     c-0.12-0.47-0.35-1.42-0.47-1.89c1.61,0,3.23,0,4.84,0.01c0,7.49,0,14.98,0,22.48c-1.62-0.01-3.24-0.02-4.85-0.03     c0.1-0.61,0.31-1.81,0.42-2.41c-1.79,1.43-3.87,3.51-6.39,2.48C300.425,136.8,300.675,131.05,300.425,127.01z M306.725,119.8     c-1.83,2.61-1.54,6.05-1.54,9.09c0.2,2.43,0.21,6.17,3.42,6.49c1.05-0.65,2.16-1.51,2.32-2.83c0.52-3.81,0.75-7.81-0.39-11.52     C310.035,119.37,308.085,119.15,306.725,119.8z"/>
		</g>
		<path fill="#F37521" d="M317.805,116c1.76,0.01,3.52,0.02,5.29,0.02c1.23,5.22,2.37,10.47,3.82,15.63    c1.43-5.19,2.82-10.38,4.16-15.59c1.6-0.03,3.2-0.05,4.81-0.08c-3.52,10.56-6.92,21.17-10.34,31.76c-1.62,0-3.22,0-4.83,0    c1.06-4.79,5.14-9.59,2.78-14.55C321.525,127.49,319.765,121.71,317.805,116z"/>
		<path fill="#F37521" d="M338.105,116.01c1.59,0,3.19,0,4.8,0.01c-0.06,0.7-0.19,2.1-0.25,2.8c1.42-1.32,2.78-3.12,4.92-3.12    c2.14-0.24,3.65,1.38,4.99,2.77c2.33-3.52,9.07-3.96,10.31,0.64c0.51,6.44,0.06,12.92,0.21,19.38c-1.58,0-3.16,0-4.73,0    c-0.14-5.81,0.27-11.64-0.18-17.43c-0.54-2.38-4.73-1.93-4.89,0.48c-0.5,5.63-0.06,11.3-0.2,16.95c-1.58,0-3.16,0-4.73,0    c-0.1-5.55,0.2-11.11-0.13-16.65c0.17-3.29-5.45-2.96-5.29,0.19c-0.28,5.48-0.01,10.97-0.1,16.46c-1.58,0-3.16,0-4.73,0    C338.105,131,338.105,123.5,338.105,116.01z"/>
		<g>
			<path fill="#F37521" d="M368.035,119.62c1.74-4.54,8.56-5.22,11.47-1.51c2.21,2.77,2.1,6.51,2.47,9.85     c-3.61,0.04-7.21,0.03-10.82,0.03c0.52,2.36,0.16,5.54,2.62,6.92c2.63,0.58,3.24-2.34,4.04-4.14c1.39-0.01,2.78-0.01,4.18,0     c-0.55,2.15-0.8,4.61-2.52,6.22c-3.45,2.93-9.83,2.25-11.61-2.25C366.005,129.96,366.125,124.36,368.035,119.62z M374.085,119.5     c-2.63,0.23-2.28,3.39-2.74,5.27c2.01-0.01,4.03-0.03,6.04-0.09C376.705,122.78,376.795,119.5,374.085,119.5z"/>
		</g>
		<path fill="#F37521" d="M385.355,116.01c1.61,0,3.22,0.01,4.84,0.02c-0.09,0.66-0.27,1.97-0.36,2.63c1.58-1.57,3.38-3.37,5.84-2.9    c2.37-0.02,4.17,2.05,4.26,4.34c0.38,6.11,0.03,12.26,0.15,18.39c-1.58,0-3.16,0-4.73,0c-0.14-5.7,0.27-11.43-0.18-17.11    c-0.33-2.57-4.7-2.39-4.85,0.17c-0.59,5.61-0.07,11.3-0.24,16.94c-1.58,0-3.16,0-4.73,0    C385.355,130.99,385.355,123.5,385.355,116.01z"/>
		<path fill="#F37521" d="M468.105,116.01c1.57,0,3.15,0,4.73,0c0.12,5.66-0.26,11.35,0.19,16.99c0.07,2.22,2.87,2.23,4.49,1.87    c1.17-1.33,1-3.21,1.1-4.86c0.02-4.67-0.03-9.33-0.01-14c1.49,0,2.98,0,4.48,0c-0.07,5.66,0.12,11.31-0.06,16.96    c0.11,8.14-14.56,7.81-14.69-0.03C467.825,127.31,468.225,121.65,468.105,116.01z"/>
		<path fill="#F37521" d="M483.805,116.01c1.75,0,3.51,0,5.28,0c1.24,5.28,2.46,10.55,3.8,15.8c1.42-5.25,2.85-10.49,4.19-15.76    c1.6-0.03,3.2-0.04,4.81-0.06c-3.52,10.56-6.92,21.16-10.34,31.75c-1.62,0-3.23,0-4.83,0c1.06-4.79,5.13-9.59,2.78-14.55    C487.525,127.49,485.765,121.71,483.805,116.01z"/>
		<g>
			<path fill="#F37521" d="M505.045,119.6c1.74-4.51,8.51-5.19,11.43-1.52c2.24,2.77,2.13,6.53,2.5,9.88     c-3.61,0.04-7.21,0.03-10.82,0.03c0.55,2.29,0.1,5.62,2.63,6.84c2.58,0.83,3.25-2.35,4.03-4.06c1.38-0.01,2.78-0.01,4.18,0     c-0.55,2.12-0.79,4.54-2.46,6.15c-3.43,3.02-9.9,2.35-11.69-2.21C503.005,129.94,503.125,124.34,505.045,119.6z M511.105,119.51     c-2.64,0.2-2.31,3.37-2.76,5.26c2.01-0.01,4.02-0.03,6.04-0.09C513.715,122.8,513.805,119.51,511.105,119.51z"/>
		</g>
		<path fill="#F37521" d="M565.105,116.01c1.59,0,3.19,0,4.8,0.01c-0.07,0.7-0.19,2.09-0.25,2.79c1.44-1.61,3.23-2.8,5.28-3.51    c0.08,1.44,0.16,2.88,0.25,4.32c-2,0.58-5.04,0.87-5.23,3.53c-0.33,5.1-0.02,10.23-0.12,15.34c-1.58,0-3.16,0-4.73,0    C565.105,131,565.105,123.5,565.105,116.01z"/>
		<g>
			<path fill="#F37521" d="M581.925,116.46c3.96-1.93,9.7-0.06,10.71,4.52c1.1,4.45,1.07,9.36-0.51,13.7     c-2.14,5.41-11.09,5.51-13.42,0.23c-1.8-3.75-1.45-8.08-0.9-12.08C578.135,120.23,579.505,117.66,581.925,116.46z M583.845,120.1     c-2.39,3.62-1.61,8.66-0.98,12.77c0.16,2.73,4.37,2.95,4.99,0.36c1.11-3.61,0.98-7.57,0.27-11.25     C587.925,120.11,585.255,118.58,583.845,120.1z"/>
		</g>
		<g>
			<path fill="#F37521" d="M608.515,119.16c2.03-4.37,9.01-4.58,11.56-0.63c1.88,2.75,1.79,6.24,2.15,9.42     c-3.61,0.05-7.21,0.04-10.81,0.04c0.53,2.4,0.12,6.38,3.27,6.99c2.31,0.01,2.58-2.66,3.36-4.25c1.39,0.02,2.79,0.04,4.2,0.06     c-0.59,2.18-0.83,4.7-2.62,6.3c-3.53,2.82-9.82,2.09-11.57-2.45C606.245,129.73,606.325,123.94,608.515,119.16z M612.565,119.73     c-0.36,1.66-0.68,3.31-0.95,4.98c2,0.03,4,0.03,6.02-0.02c-0.41-1.47-0.66-2.99-1.32-4.36     C615.335,119.28,613.795,119.82,612.565,119.73z"/>
		</g>
		<path fill="#F37521" d="M628.965,116.44c2.13-1.07,4.56-0.55,6.83-0.39c0.02,1.28,0.05,2.56,0.09,3.85    c-1.81-0.19-4.48-0.89-5.4,1.26c-1.71,3.75-1.46,8.28-0.08,12.09c0.95,2.22,3.61,1.66,5.5,1.38c-0.03,0.92-0.09,2.75-0.12,3.67    c-3.15,0.56-7.38,1.02-9.25-2.24c-2.23-4.27-2.31-9.36-1.36-13.99C625.685,119.84,626.815,117.5,628.965,116.44z"/>
		<path fill="#F37521" d="M649.845,116.02c1.57-0.01,3.15-0.01,4.74-0.02c-0.01,7.5,0,15,0,22.5c-1.59-0.01-3.18-0.02-4.75-0.03    C649.865,130.99,649.855,123.5,649.845,116.02z"/>
		<g>
			<path fill="#F37521" d="M663.735,116.07c3.64-1.17,8.39,0.53,9.51,4.44c1.3,4.54,1.2,9.56-0.31,14.04     c-2.04,5.48-10.94,5.68-13.43,0.51c-1.95-4.1-1.52-8.83-0.76-13.16C659.225,119.26,661.095,116.8,663.735,116.07z      M664.785,119.99c-2.71,3.49-1.77,8.83-1.14,12.98c0.23,2.8,4.5,2.72,5.03,0.11c1.01-3.66,0.97-7.67,0.11-11.36     C668.485,120.14,666.035,118.6,664.785,119.99z"/>
		</g>
		<path fill="#F37521" d="M677.615,115.86c1.84,0.14,3.69,0.33,5.54,0.55l-1.82,2.33c2.25-0.76,3.64-3.45,6.3-3.02    c2.43-0.06,4.43,1.92,4.55,4.31c0.37,6.15,0.04,12.32,0.15,18.48c-1.6-0.01-3.18-0.03-4.75-0.04c-0.11-5.78,0.33-11.59-0.2-17.35    c-0.84-2.61-5.01-1.79-4.9,0.88c-0.39,5.48-0.05,10.98-0.15,16.48c-1.57,0.01-3.14,0.03-4.69,0.05    C677.565,130.97,677.615,123.41,677.615,115.86z"/>
		<path fill="#F37521" d="M424.855,125.26c2.99,0,5.98,0,8.98,0c-0.01,1.16-0.01,2.32,0,3.48c-3,0-5.99,0-8.98,0    C424.845,127.58,424.845,126.42,424.855,125.26z"/>
	</g>
	<g>
		<path fill="#050708" d="M288.755,24.74c2.94,0.01,5.88,0.01,8.82,0.01c2.72,4.98,5.32,10.02,8.04,15c-0.76,0-2.29,0.01-3.05,0.01    c-3.11-2.66-6.21-5.32-9.29-8c-3.26,2.61-6.47,5.28-9.64,7.98c-0.82,0.01-2.44,0.04-3.25,0.06    C283.095,34.74,285.945,29.75,288.755,24.74z"/>
		<path fill="#050708" d="M90.365,28.77c13.37-3.96,28.35-2.08,40.27,5.16c10.85,6.43,19.09,17.06,22.68,29.15    c4.2,13.93,2.06,29.64-5.86,41.86c-3.88,6.29-9.55,11.14-15.07,15.94c1.09-7.25,2.65-14.57,1.64-21.92    c-1.76-19.06-13.95-36.72-31.17-45.08c-1.29-0.66-2.78-0.61-4.2-0.66c-13.15,0.04-26.3,0.04-39.45,0.01    C66.175,41.65,77.325,32.55,90.365,28.77z"/>
		<path fill="#050708" d="M173.475,27.78c6.62-1.11,13.35-0.26,20.02-0.56c8.98,10.91,17.57,22.15,26.62,33    c-0.05-7.75,0.01-15.5-0.01-23.25c-0.13-2.05-0.09-4.36-1.42-6.05c-1.46-1.86-3.99-1.91-6.09-2.47c0-0.3,0-0.9,0-1.2    c6.08,0.31,12.29-0.71,18.28,0.61c-2.99,1.43-7.64,1.89-7.58,6.2c-0.63,16.37,0.24,32.8-0.44,49.17c-1.25-1.2-2.49-2.41-3.6-3.74    c-11.27-13.92-22.46-27.91-33.85-41.73c-0.14,11.09-0.02,22.18-0.08,33.27c0.08,2.46,0.02,5.41,2.09,7.14    c2.17,1.27,4.82,1.43,6.96,2.8c-6.93,0.44-13.91,0.48-20.83-0.04c2.09-1.08,4.39-1.61,6.52-2.58c2.03-1.38,2.18-4.12,2.28-6.34    c0.05-12.72-0.06-25.45,0.04-38.18C180.335,30.62,177.045,28.83,173.475,27.78z"/>
		<path fill="#050708" d="M359.135,27.92c6.71-1.42,13.64-0.33,20.45-0.68c3.3,0.26,6.98-0.81,9.97,1.02    c-3.13,0.68-8.63,0.08-8.8,4.61c-0.39,13.05-0.04,26.13-0.17,39.19c-0.01,2.2,0.06,5.68,2.95,5.95c4.75,0.38,9.71,0.73,14.33-0.64    c5.72-2.06,7.95-8.23,9.78-13.47c0.14-1.22,1.25-1.58,2.2-1.99c-0.61,6.45-1.31,12.9-2.05,19.34    c-15.92-0.01-31.85,0.01-47.77-0.01l0.14-1.27c2.74-0.3,6.96-0.32,7.21-3.95c0.54-13.31,0.04-26.66,0.24-39.98    c-0.21-2.13,0.35-5.12-1.92-6.34C363.615,28.78,361.295,28.59,359.135,27.92z"/>
		<path fill="#050708" d="M5.695,54.2c3.95-7.95,10.4-14.22,17.26-19.69c-1.05,7.42-2.63,14.92-1.5,22.44    c1.69,16.09,10.93,30.68,23.3,40.8c2.66,1.93,5.34,4.57,8.86,4.5c13.97,0.04,27.94-0.07,41.91,0.04    c-3.79,5.66-7.95,11.19-13.4,15.37c-11.56,9.13-27.2,12.88-41.62,9.77c-14.58-2.94-27.56-12.69-34.49-25.84    C-1.875,87.14-2.025,68.75,5.695,54.2z"/>
		<g>
			<path fill="#050708" d="M498.675,44.99c-0.83-3.11,2.89-5.81,5.71-4.69c2.22,0.6,2.44,4.1,5.08,3.84     c4.69,0.31,9.4,0.04,14.11,0.09c0,1.6,0,3.2,0.01,4.8c3-2.89,6.44-6.05,10.88-6.05c4.74-0.43,9.23,3.24,9.92,7.91     c1.09,8.47-0.01,17.04,0.61,25.54c0.11,2.39,2.73,3.2,4.18,4.69c-6.54,0.22-13.08,0.18-19.61,0.02c1.23-1.15,2.63-2.15,3.73-3.45     c0.89-2.78,0.48-5.77,0.57-8.64c-0.17-5.68,0.27-11.38-0.21-17.05c0.07-2.38-2.31-4.48-4.66-3.61c-3.1,1.08-5.83,4.19-5.42,7.64     c0.11,6.68-0.2,13.38,0.17,20.05c-0.02,2.5,2.68,3.48,4.17,5.05c-6.55,0.19-13.11,0.19-19.66,0c1.88-1.67,4.82-3,4.3-6.02     c-0.02-8.76,0.29-17.54-0.16-26.29c0.1-2.51-2.65-2.68-4.41-3.33c-0.53,1.62-0.76,3.53-2.15,4.71c-2.36,2.28-5.89,2.08-8.92,2.43     c2.9,7.55,2.84,16.78-2.22,23.41c-5.2,7.07-16.32,8.23-23.23,3.08c-9.01-6.95-9.69-21.45-2.87-30.14     c4.66-6.04,13.63-7.63,20.36-4.33c2.88,1.49,4.75,4.36,7.64,5.85c1.96,0.84,3.9-0.23,5.65-1.04     C501.035,47.99,499.475,46.74,498.675,44.99z M478.975,46.56c-2.87,2.59-2.61,6.88-2.95,10.4c-0.13,6.48-0.85,13.22,1.11,19.5     c0.96,3.49,6.25,4.18,8.11,1.12c1.8-3.21,1.47-7.08,1.77-10.63c0.04-5.85,0.58-11.86-0.92-17.59     C485.395,46.34,481.525,44.52,478.975,46.56z"/>
		</g>
		<g>
			<path fill="#050708" d="M243.155,44.59c3.87-1.79,8.34-2.01,12.45-0.97c5.12,1.44,10.48,0.77,15.72,0.86     c0.01,1.43,0.01,2.85,0.02,4.28c-2.34-0.01-4.68-0.02-7.02-0.05c1.91,2.76,3.8,5.91,3.24,9.44c-0.47,5.42-5.18,9.36-10.08,10.91     c-3.51,1.41-7.33,0.6-10.97,0.9c-3.4,0.29-4.59,6.03-0.86,6.78c6.95,0.94,14.38-0.91,21,2.03c4.91,2.24,6.06,8.98,3.15,13.24     c-2.76,4.54-8.36,5.9-13.27,6.51c-5.82,0.52-11.93,0.31-17.38-1.97c-2.47-1-4.92-3.69-3.81-6.51c0.66-2.42,3.31-3.15,5.22-4.3     c-2.11-1.73-4.54-3.7-4.5-6.72c-0.12-5.02,4.41-8.16,8.38-10.23c-4.26-1.77-8.43-4.99-9.11-9.86     C233.925,53,237.765,46.95,243.155,44.59z M249.825,46.24c-1.69,0.91-2.63,2.76-2.94,4.6c-0.73,4.24-0.91,8.67,0.14,12.87     c0.62,2.55,3.4,5.01,6.11,3.76c2.31-0.76,3.36-3.25,3.64-5.49c0.61-4.21,0.54-8.6-0.63-12.71     C255.445,46.67,252.345,44.7,249.825,46.24z M243.895,87.36c-1.84,0.58-3.21,2.73-2.32,4.6c1.35,2.99,4.97,3.66,7.91,3.93     c4.42,0.26,9.18,0.36,13.19-1.78c1.81-0.88,3.13-3.18,2.12-5.12c-2.47-2.36-6.14-1.98-9.28-2.23     C251.645,86.8,247.665,86.33,243.895,87.36z"/>
		</g>
		<g>
			<path fill="#050708" d="M280.235,47.71c4.11-3.79,10.03-4.92,15.45-4.67c5,0.18,10.57,3.66,10.95,9.02     c0.65,7.62-0.23,15.3,0.39,22.91c0.19,2.57,3.29,0.78,4.9,1.09c-2.55,3.18-5.99,6.56-10.48,5.63c-3.15-0.1-4.89-2.96-5.86-5.6     c-3.77,2.87-8.06,6.21-13.1,5.61c-3.69-0.41-6.52-4.07-6.16-7.73c0.14-3.4,2.36-6.29,5.01-8.23c4.46-3.31,9.61-5.49,14.54-7.99     c-0.04-2.92,0.18-5.88-0.39-8.76c-1.04-4.12-7.67-4.3-9.55-0.86c0.16,2.62,3.35,4.65,2.31,7.56c-1.47,4.18-7.79,4.38-10.08,0.86     C276.195,53.64,277.985,49.88,280.235,47.71z M287.085,69.39c-0.81,2.24,0.19,5.16,2.54,5.97c2.36,0.77,4.37-1.03,6.27-2.14     c-0.07-4.24-0.03-8.49-0.09-12.74C292.415,62.85,288.445,65.24,287.085,69.39z"/>
		</g>
		<path fill="#050708" d="M330.585,49.03c3.02-2.91,6.49-6.08,10.97-6.05c4.68-0.38,9.11,3.24,9.82,7.85    c1.12,8.5-0.02,17.11,0.63,25.63c0.09,2.37,2.75,3.18,4.18,4.67c-6.52,0.2-13.05,0.18-19.58,0.01c1.78-1.74,4.55-3.18,4.19-6.1    c0.02-7.68,0.28-15.39-0.14-23.06c0.06-2.4-2.36-4.48-4.7-3.58c-3.07,1.1-5.78,4.18-5.38,7.6c0.11,6.7-0.2,13.42,0.17,20.12    c-0.02,2.49,2.73,3.45,4.21,5.01c-6.56,0.18-13.13,0.19-19.69,0c1.5-1.56,4.31-2.5,4.21-5.04c0.23-8.74,0.17-17.51,0.04-26.25    c0.3-2.81-2.56-3.9-4.3-5.42c5.12-0.27,10.24-0.15,15.37-0.18C330.585,45.84,330.585,47.44,330.585,49.03z"/>
		<path fill="#050708" d="M453.275,47c0.27-3.71,5.4-5.15,7.91-2.64c2.93,2.66,1.83,7.88-1.51,9.69c-2.46,1.25-5.28,1.43-7.94,1.97    l-0.04-1.61c1.61-0.45,3.33-0.73,4.84-1.52C456.475,50.57,453.175,49.53,453.275,47z"/>
		<g>
			<path fill="#050708" d="M563.665,44.08c3.67-1.37,7.73-1.37,11.5-0.38c5.04,1.36,10.29,0.66,15.44,0.8     c-0.02,1.42-0.03,2.84-0.03,4.27c-2.31-0.02-4.63-0.03-6.93-0.05c3.32,4.04,4.56,10.19,1.25,14.62     c-4.08,5.75-11.66,7.24-18.28,6.56c-3.72-0.53-5.84,5.67-1.88,6.8c7.36,1.17,15.66-1.31,22.38,2.81     c5.73,3.95,3.89,13.25-1.89,16.24c-7.19,3.72-15.82,3.61-23.57,1.93c-3.26-0.77-7.59-2.7-7.31-6.7c0.28-2.88,3.15-4.01,5.36-5.19     c-2.28-1.97-4.88-4.42-4.36-7.77c0.51-4.53,4.62-7.25,8.33-9.18c-4.16-1.87-8.36-4.96-9.07-9.79     C552.995,52.59,557.615,46.09,563.665,44.08z M568.935,46.31c-2.93,1.78-3.03,5.61-3.31,8.64c-0.07,3.56-0.34,7.46,1.53,10.65     c1.12,1.91,3.69,2.83,5.67,1.68c2.7-1.27,3.19-4.54,3.45-7.19c0.19-3.91,0.25-8.02-1.26-11.71     C574.055,46.1,571.095,44.93,568.935,46.31z M562.945,87.43c-1.74,0.66-2.97,2.74-2.11,4.54c1.31,2.9,4.82,3.65,7.69,3.9     c4.45,0.31,9.23,0.38,13.31-1.7c1.78-0.84,2.93-2.86,2.45-4.82c-2.07-2.61-5.71-2.3-8.67-2.56     C571.395,86.82,567.035,86.25,562.945,87.43z"/>
		</g>
		<path fill="#050708" d="M670.025,48.97c3.23-2.96,6.93-6.3,11.65-5.99c4.96-0.14,9.18,4.23,9.39,9.09    c0.74,7.96-0.09,15.98,0.4,23.96c-0.2,2.61,2.6,3.57,4.16,5.08c-6.52,0.22-13.05,0.19-19.57,0.03c1.56-1.63,4.23-2.79,4.19-5.39    c0.24-7.26,0.08-14.53,0.08-21.8c0.13-2.43-0.77-5.8-3.76-5.79c-3.62,0.58-6.92,4.07-6.49,7.86c0.1,6.63-0.2,13.27,0.16,19.89    c-0.14,2.63,2.61,3.64,4.18,5.22c-6.54,0.18-13.09,0.19-19.63,0c1.56-1.55,4.41-2.5,4.19-5.15c0.25-8.63,0.15-17.28,0.06-25.91    c0.39-2.92-2.48-4.08-4.38-5.52c5.14-0.5,10.31-0.27,15.47-0.28C670.085,45.83,670.055,47.4,670.025,48.97z"/>
		<path fill="#050708" d="M414.415,44.46c5.13-0.33,10.28-0.19,15.42-0.21c0.06,8.91-0.07,17.82,0.04,26.72    c0.2,2.07,0.17,5.29,2.79,5.73c3.19,0.47,5.21-2.65,7.22-4.58c-0.17-7.37,0.14-14.75-0.13-22.12c0.34-2.81-2.43-4.07-4.15-5.64    c5.07-0.17,10.15-0.11,15.22-0.1c-0.03,3.58-0.05,7.17,0.34,10.74c-0.38,7.83-0.87,15.8,0.33,23.58c1.3,0.76,2.61,1.56,3.84,2.45    c-5.15,0.4-10.32,0.16-15.48,0.21c-0.01-1.54-0.01-3.07,0-4.61c-2.71,2.34-5.55,4.92-9.24,5.46c-5.04,1.16-10.55-2.53-11.27-7.68    c-1.2-8.44,0.04-17.01-0.7-25.47C418.505,46.6,415.915,45.83,414.415,44.46z"/>
		<path fill="#050708" d="M612.275,44.38c6.96-0.21,13.93-0.2,20.89-0.02c-1.69,1.52-5.23,2.68-3.8,5.57    c2.09,6.05,4.89,11.85,7.7,17.59c1.81-4.55,3.75-9.04,5.51-13.6c0.73-2.13,1.67-4.42,1.07-6.7c-1.44-1.04-3.05-1.78-4.55-2.7    c4.53-0.43,9.09-0.34,13.63-0.09c-2.17,1.69-4.64,3.26-5.62,5.97c-4.23,9.54-8.21,19.18-12.28,28.78    c-0.55,1.28-1.25,2.51-2.17,3.55c-1.21-0.84-1.81-2.19-2.39-3.47c-4.16-9.48-8.27-18.98-12.55-28.4    C616.605,48.17,614.365,46.28,612.275,44.38z"/>
		<path fill="#050708" d="M599.965,69.44c4.69-1.51,9.8,3.45,8.12,8.17c-1.271,4.85-8.32,6.32-11.41,2.37    C593.415,76.62,595.465,70.42,599.965,69.44z"/>
		<path fill="#050708" d="M479.055,85.63c4.54-1.93,10.05,2.41,8.97,7.3c-0.76,4.91-7.54,7.16-11.05,3.62    C473.325,93.55,474.625,87.13,479.055,85.63z"/>
	</g>
</g>
</svg>